# Created by Open3D 
# object name: 1
# number of vertices: 102
# number of triangles: 200
v 1.90376 0.000567578 -0.000260773 0 1 0
vn 1 0.000127121 0.000144191
v 1.20182 0.000478346 -0.000361986 0 1 0
vn -1 -0.000127121 -0.000144191
v 1.90374 0.000567576 0.114594 0 1 0
vn 0.399316 0.0483833 0.915536
v 1.90375 -0.0349244 0.108972 0 1 0
vn 0.399356 -0.236881 0.885665
v 1.90375 -0.0669422 0.0926585 0 1 0
vn 0.399407 -0.498952 0.769104
v 1.90376 -0.0923517 0.067249 0 1 0
vn 0.399461 -0.712178 0.577264
v 1.90377 -0.108666 0.0352312 0 1 0
vn 0.399515 -0.855685 0.328923
v 1.90377 -0.114287 -0.000260773 0 1 0
vn 0.399563 -0.915427 0.0483901
v 1.90378 -0.108666 -0.0357528 0 1 0
vn 0.399601 -0.885556 -0.236874
v 1.90378 -0.0923517 -0.0677706 0 1 0
vn 0.399624 -0.768996 -0.498945
v 1.90378 -0.0669422 -0.09318 0 1 0
vn 0.39963 -0.577156 -0.712171
v 1.90378 -0.0349244 -0.109494 0 1 0
vn 0.399619 -0.328814 -0.855678
v 1.90377 0.00056758 -0.115115 0 1 0
vn 0.399592 -0.0482817 -0.915421
v 1.90377 0.0360596 -0.109494 0 1 0
vn 0.399552 0.236982 -0.88555
v 1.90376 0.0680774 -0.09318 0 1 0
vn 0.399501 0.499054 -0.768989
v 1.90376 0.0934868 -0.0677706 0 1 0
vn 0.399447 0.712279 -0.577149
v 1.90375 0.109801 -0.0357528 0 1 0
vn 0.399393 0.855787 -0.328808
v 1.90374 0.115422 -0.000260773 0 1 0
vn 0.399345 0.915529 -0.0482749
v 1.90374 0.109801 0.0352312 0 1 0
vn 0.399307 0.885658 0.236989
v 1.90374 0.0934868 0.067249 0 1 0
vn 0.399284 0.769097 0.49906
v 1.90374 0.0680774 0.0926585 0 1 0
vn 0.399278 0.577257 0.712286
v 1.90374 0.0360596 0.108972 0 1 0
vn 0.399289 0.328916 0.855794
v 1.72826 0.000545268 0.114568 0 1 0
vn -0.000144191 -1.83298e-08 1
v 1.72826 -0.0349467 0.108947 0 1 0
vn -9.78511e-05 -0.309017 0.951057
v 1.72827 -0.0669645 0.0926332 0 1 0
vn -4.19328e-05 -0.587785 0.809017
v 1.72828 -0.092374 0.0672237 0 1 0
vn 1.80901e-05 -0.809017 0.587785
v 1.72828 -0.108688 0.0352059 0 1 0
vn 7.63422e-05 -0.951057 0.309017
v 1.72829 -0.114309 -0.000286076 0 1 0
vn 0.000127121 -1 3.71364e-16
v 1.72829 -0.108688 -0.0357781 0 1 0
vn 0.000165457 -0.951057 -0.309017
v 1.7283 -0.092374 -0.0677959 0 1 0
vn 0.000187597 -0.809017 -0.587785
v 1.7283 -0.0669645 -0.0932053 0 1 0
vn 0.000191373 -0.587785 -0.809017
v 1.72829 -0.0349467 -0.109519 0 1 0
vn 0.000176416 -0.309017 -0.951057
v 1.72829 0.000545272 -0.115141 0 1 0
vn 0.000144191 1.83298e-08 -1
v 1.72829 0.0360373 -0.109519 0 1 0
vn 9.78511e-05 0.309017 -0.951057
v 1.72828 0.0680551 -0.0932053 0 1 0
vn 4.19328e-05 0.587785 -0.809017
v 1.72827 0.0934645 -0.0677959 0 1 0
vn -1.80901e-05 0.809017 -0.587785
v 1.72827 0.109778 -0.0357781 0 1 0
vn -7.63422e-05 0.951057 -0.309017
v 1.72826 0.1154 -0.000286076 0 1 0
vn -0.000127121 1 -3.59759e-16
v 1.72825 0.109778 0.0352059 0 1 0
vn -0.000165457 0.951057 0.309017
v 1.72825 0.0934645 0.0672237 0 1 0
vn -0.000187597 0.809017 0.587785
v 1.72825 0.0680551 0.0926332 0 1 0
vn -0.000191373 0.587785 0.809017
v 1.72825 0.0360373 0.108947 0 1 0
vn -0.000176416 0.309017 0.951057
v 1.55277 0.00052296 0.114543 0 1 0
vn -0.000144191 -1.83298e-08 1
v 1.55278 -0.034969 0.108922 0 1 0
vn -9.78511e-05 -0.309017 0.951057
v 1.55278 -0.0669868 0.0926079 0 1 0
vn -4.19328e-05 -0.587785 0.809017
v 1.55279 -0.0923963 0.0671984 0 1 0
vn 1.80901e-05 -0.809017 0.587785
v 1.5528 -0.10871 0.0351806 0 1 0
vn 7.63422e-05 -0.951057 0.309017
v 1.5528 -0.114332 -0.000311379 0 1 0
vn 0.000127121 -1 3.65562e-16
v 1.55281 -0.10871 -0.0358034 0 1 0
vn 0.000165457 -0.951057 -0.309017
v 1.55281 -0.0923963 -0.0678212 0 1 0
vn 0.000187597 -0.809017 -0.587785
v 1.55281 -0.0669868 -0.0932306 0 1 0
vn 0.000191373 -0.587785 -0.809017
v 1.55281 -0.034969 -0.109545 0 1 0
vn 0.000176416 -0.309017 -0.951057
v 1.55281 0.000522964 -0.115166 0 1 0
vn 0.000144191 1.83298e-08 -1
v 1.5528 0.036015 -0.109545 0 1 0
vn 9.78511e-05 0.309017 -0.951057
v 1.55279 0.0680328 -0.0932306 0 1 0
vn 4.19328e-05 0.587785 -0.809017
v 1.55279 0.0934422 -0.0678212 0 1 0
vn -1.80901e-05 0.809017 -0.587785
v 1.55278 0.109756 -0.0358034 0 1 0
vn -7.63422e-05 0.951057 -0.309017
v 1.55278 0.115377 -0.000311379 0 1 0
vn -0.000127121 1 -3.65562e-16
v 1.55277 0.109756 0.0351806 0 1 0
vn -0.000165457 0.951057 0.309017
v 1.55277 0.0934422 0.0671984 0 1 0
vn -0.000187597 0.809017 0.587785
v 1.55277 0.0680328 0.0926079 0 1 0
vn -0.000191373 0.587785 0.809017
v 1.55277 0.036015 0.108922 0 1 0
vn -0.000176416 0.309017 0.951057
v 1.37729 0.000500652 0.114518 0 1 0
vn -0.000144191 -1.83298e-08 1
v 1.37729 -0.0349913 0.108896 0 1 0
vn -9.78511e-05 -0.309017 0.951057
v 1.3773 -0.0670091 0.0925826 0 1 0
vn -4.19328e-05 -0.587785 0.809017
v 1.37731 -0.0924186 0.0671731 0 1 0
vn 1.80901e-05 -0.809017 0.587785
v 1.37731 -0.108732 0.0351553 0 1 0
vn 7.63422e-05 -0.951057 0.309017
v 1.37732 -0.114354 -0.000336683 0 1 0
vn 0.000127121 -1 3.88772e-16
v 1.37732 -0.108732 -0.0358287 0 1 0
vn 0.000165457 -0.951057 -0.309017
v 1.37733 -0.0924186 -0.0678465 0 1 0
vn 0.000187597 -0.809017 -0.587785
v 1.37733 -0.0670091 -0.0932559 0 1 0
vn 0.000191373 -0.587785 -0.809017
v 1.37733 -0.0349913 -0.10957 0 1 0
vn 0.000176416 -0.309017 -0.951057
v 1.37732 0.000500656 -0.115191 0 1 0
vn 0.000144191 1.83298e-08 -1
v 1.37732 0.0359927 -0.10957 0 1 0
vn 9.78511e-05 0.309017 -0.951057
v 1.37731 0.0680105 -0.0932559 0 1 0
vn 4.19328e-05 0.587785 -0.809017
v 1.3773 0.0934199 -0.0678465 0 1 0
vn -1.80901e-05 0.809017 -0.587785
v 1.3773 0.109734 -0.0358287 0 1 0
vn -7.63422e-05 0.951057 -0.309017
v 1.37729 0.115355 -0.000336683 0 1 0
vn -0.000127121 1 -3.71364e-16
v 1.37729 0.109734 0.0351553 0 1 0
vn -0.000165457 0.951057 0.309017
v 1.37728 0.0934199 0.0671731 0 1 0
vn -0.000187597 0.809017 0.587785
v 1.37728 0.0680104 0.0925826 0 1 0
vn -0.000191373 0.587785 0.809017
v 1.37729 0.0359927 0.108896 0 1 0
vn -0.000176416 0.309017 0.951057
v 1.2018 0.000478344 0.114493 0 1 0
vn -0.39958 -0.0483833 0.915421
v 1.20181 -0.0350137 0.108871 0 1 0
vn -0.399536 -0.328916 0.855678
v 1.20182 -0.0670315 0.0925573 0 1 0
vn -0.399483 -0.577257 0.712171
v 1.20182 -0.0924409 0.0671478 0 1 0
vn -0.399428 -0.769097 0.498945
v 1.20183 -0.108755 0.03513 0 1 0
vn -0.399376 -0.885658 0.236874
v 1.20184 -0.114376 -0.000361986 0 1 0
vn -0.399331 -0.915529 -0.0483901
v 1.20184 -0.108755 -0.035854 0 1 0
vn -0.399298 -0.855787 -0.328923
v 1.20184 -0.0924409 -0.0678718 0 1 0
vn -0.39928 -0.712279 -0.577264
v 1.20184 -0.0670314 -0.0932812 0 1 0
vn -0.39928 -0.499054 -0.769104
v 1.20184 -0.0350137 -0.109595 0 1 0
vn -0.399296 -0.236982 -0.885665
v 1.20184 0.000478349 -0.115217 0 1 0
vn -0.399328 0.0482817 -0.915536
v 1.20183 0.0359703 -0.109595 0 1 0
vn -0.399372 0.328815 -0.855794
v 1.20183 0.0679881 -0.0932812 0 1 0
vn -0.399425 0.577156 -0.712286
v 1.20182 0.0933976 -0.0678718 0 1 0
vn -0.39948 0.768996 -0.49906
v 1.20181 0.109711 -0.035854 0 1 0
vn -0.399532 0.885556 -0.236989
v 1.20181 0.115333 -0.000361986 0 1 0
vn -0.399577 0.915427 0.0482749
v 1.2018 0.109711 0.03513 0 1 0
vn -0.39961 0.855685 0.328808
v 1.2018 0.0933976 0.0671478 0 1 0
vn -0.399628 0.712178 0.577149
v 1.2018 0.0679881 0.0925573 0 1 0
vn -0.399628 0.498952 0.768989
v 1.2018 0.0359703 0.108871 0 1 0
vn -0.399612 0.236881 0.88555
f 1//1 3//3 4//4
f 2//2 84//84 83//83
f 1//1 4//4 5//5
f 2//2 85//85 84//84
f 1//1 5//5 6//6
f 2//2 86//86 85//85
f 1//1 6//6 7//7
f 2//2 87//87 86//86
f 1//1 7//7 8//8
f 2//2 88//88 87//87
f 1//1 8//8 9//9
f 2//2 89//89 88//88
f 1//1 9//9 10//10
f 2//2 90//90 89//89
f 1//1 10//10 11//11
f 2//2 91//91 90//90
f 1//1 11//11 12//12
f 2//2 92//92 91//91
f 1//1 12//12 13//13
f 2//2 93//93 92//92
f 1//1 13//13 14//14
f 2//2 94//94 93//93
f 1//1 14//14 15//15
f 2//2 95//95 94//94
f 1//1 15//15 16//16
f 2//2 96//96 95//95
f 1//1 16//16 17//17
f 2//2 97//97 96//96
f 1//1 17//17 18//18
f 2//2 98//98 97//97
f 1//1 18//18 19//19
f 2//2 99//99 98//98
f 1//1 19//19 20//20
f 2//2 100//100 99//99
f 1//1 20//20 21//21
f 2//2 101//101 100//100
f 1//1 21//21 22//22
f 2//2 102//102 101//101
f 1//1 22//22 3//3
f 2//2 83//83 102//102
f 23//23 4//4 3//3
f 23//23 24//24 4//4
f 24//24 5//5 4//4
f 24//24 25//25 5//5
f 25//25 6//6 5//5
f 25//25 26//26 6//6
f 26//26 7//7 6//6
f 26//26 27//27 7//7
f 27//27 8//8 7//7
f 27//27 28//28 8//8
f 28//28 9//9 8//8
f 28//28 29//29 9//9
f 29//29 10//10 9//9
f 29//29 30//30 10//10
f 30//30 11//11 10//10
f 30//30 31//31 11//11
f 31//31 12//12 11//11
f 31//31 32//32 12//12
f 32//32 13//13 12//12
f 32//32 33//33 13//13
f 33//33 14//14 13//13
f 33//33 34//34 14//14
f 34//34 15//15 14//14
f 34//34 35//35 15//15
f 35//35 16//16 15//15
f 35//35 36//36 16//16
f 36//36 17//17 16//16
f 36//36 37//37 17//17
f 37//37 18//18 17//17
f 37//37 38//38 18//18
f 38//38 19//19 18//18
f 38//38 39//39 19//19
f 39//39 20//20 19//19
f 39//39 40//40 20//20
f 40//40 21//21 20//20
f 40//40 41//41 21//21
f 41//41 22//22 21//21
f 41//41 42//42 22//22
f 42//42 3//3 22//22
f 42//42 23//23 3//3
f 43//43 24//24 23//23
f 43//43 44//44 24//24
f 44//44 25//25 24//24
f 44//44 45//45 25//25
f 45//45 26//26 25//25
f 45//45 46//46 26//26
f 46//46 27//27 26//26
f 46//46 47//47 27//27
f 47//47 28//28 27//27
f 47//47 48//48 28//28
f 48//48 29//29 28//28
f 48//48 49//49 29//29
f 49//49 30//30 29//29
f 49//49 50//50 30//30
f 50//50 31//31 30//30
f 50//50 51//51 31//31
f 51//51 32//32 31//31
f 51//51 52//52 32//32
f 52//52 33//33 32//32
f 52//52 53//53 33//33
f 53//53 34//34 33//33
f 53//53 54//54 34//34
f 54//54 35//35 34//34
f 54//54 55//55 35//35
f 55//55 36//36 35//35
f 55//55 56//56 36//36
f 56//56 37//37 36//36
f 56//56 57//57 37//37
f 57//57 38//38 37//37
f 57//57 58//58 38//38
f 58//58 39//39 38//38
f 58//58 59//59 39//39
f 59//59 40//40 39//39
f 59//59 60//60 40//40
f 60//60 41//41 40//40
f 60//60 61//61 41//41
f 61//61 42//42 41//41
f 61//61 62//62 42//42
f 62//62 23//23 42//42
f 62//62 43//43 23//23
f 63//63 44//44 43//43
f 63//63 64//64 44//44
f 64//64 45//45 44//44
f 64//64 65//65 45//45
f 65//65 46//46 45//45
f 65//65 66//66 46//46
f 66//66 47//47 46//46
f 66//66 67//67 47//47
f 67//67 48//48 47//47
f 67//67 68//68 48//48
f 68//68 49//49 48//48
f 68//68 69//69 49//49
f 69//69 50//50 49//49
f 69//69 70//70 50//50
f 70//70 51//51 50//50
f 70//70 71//71 51//51
f 71//71 52//52 51//51
f 71//71 72//72 52//52
f 72//72 53//53 52//52
f 72//72 73//73 53//53
f 73//73 54//54 53//53
f 73//73 74//74 54//54
f 74//74 55//55 54//54
f 74//74 75//75 55//55
f 75//75 56//56 55//55
f 75//75 76//76 56//56
f 76//76 57//57 56//56
f 76//76 77//77 57//57
f 77//77 58//58 57//57
f 77//77 78//78 58//58
f 78//78 59//59 58//58
f 78//78 79//79 59//59
f 79//79 60//60 59//59
f 79//79 80//80 60//60
f 80//80 61//61 60//60
f 80//80 81//81 61//61
f 81//81 62//62 61//61
f 81//81 82//82 62//62
f 82//82 43//43 62//62
f 82//82 63//63 43//43
f 83//83 64//64 63//63
f 83//83 84//84 64//64
f 84//84 65//65 64//64
f 84//84 85//85 65//65
f 85//85 66//66 65//65
f 85//85 86//86 66//66
f 86//86 67//67 66//66
f 86//86 87//87 67//67
f 87//87 68//68 67//67
f 87//87 88//88 68//68
f 88//88 69//69 68//68
f 88//88 89//89 69//69
f 89//89 70//70 69//69
f 89//89 90//90 70//70
f 90//90 71//71 70//70
f 90//90 91//91 71//71
f 91//91 72//72 71//71
f 91//91 92//92 72//72
f 92//92 73//73 72//72
f 92//92 93//93 73//73
f 93//93 74//74 73//73
f 93//93 94//94 74//74
f 94//94 75//75 74//74
f 94//94 95//95 75//75
f 95//95 76//76 75//75
f 95//95 96//96 76//76
f 96//96 77//77 76//76
f 96//96 97//97 77//77
f 97//97 78//78 77//77
f 97//97 98//98 78//78
f 98//98 79//79 78//78
f 98//98 99//99 79//79
f 99//99 80//80 79//79
f 99//99 100//100 80//80
f 100//100 81//81 80//80
f 100//100 101//101 81//81
f 101//101 82//82 81//81
f 101//101 102//102 82//82
f 102//102 63//63 82//82
f 102//102 83//83 63//63
