# Created by Open3D 
# object name: 11
# number of vertices: 102
# number of triangles: 200
v -0.000344394 1.96804 -0.000369508 0 1 0
vn 9.17396e-07 1 8.67194e-08
v -0.000345021 1.28532 -0.000369567 0 1 0
vn -9.17396e-07 -1 -8.67194e-08
v -0.000344394 1.96804 0.0955892 0 1 0
vn -0.0493757 0.350542 0.935245
v 0.0293085 1.96804 0.0908927 0 1 0
vn 0.242047 0.350542 0.904729
v 0.0560587 1.96804 0.0772627 0 1 0
vn 0.509777 0.350541 0.785651
v 0.0772878 1.96804 0.0560336 0 1 0
vn 0.727607 0.350541 0.589669
v 0.0909178 1.96804 0.0292834 0 1 0
vn 0.874213 0.350541 0.335966
v 0.0956143 1.96804 -0.000369508 0 1 0
vn 0.935245 0.350541 0.0493761
v 0.0909178 1.96804 -0.0300224 0 1 0
vn 0.904729 0.350541 -0.242047
v 0.0772878 1.96804 -0.0567726 0 1 0
vn 0.785652 0.350541 -0.509777
v 0.0560587 1.96804 -0.0780017 0 1 0
vn 0.589669 0.350541 -0.727606
v 0.0293085 1.96804 -0.0916317 0 1 0
vn 0.335966 0.350542 -0.874212
v -0.000344394 1.96804 -0.0963282 0 1 0
vn 0.0493764 0.350542 -0.935245
v -0.0299973 1.96804 -0.0916317 0 1 0
vn -0.242047 0.350542 -0.904728
v -0.0567475 1.96804 -0.0780017 0 1 0
vn -0.509777 0.350542 -0.785651
v -0.0779766 1.96804 -0.0567726 0 1 0
vn -0.727606 0.350543 -0.589669
v -0.0916066 1.96804 -0.0300224 0 1 0
vn -0.874212 0.350543 -0.335966
v -0.0963031 1.96804 -0.000369508 0 1 0
vn -0.935244 0.350543 -0.049376
v -0.0916066 1.96804 0.0292834 0 1 0
vn -0.904728 0.350543 0.242047
v -0.0779766 1.96804 0.0560336 0 1 0
vn -0.785651 0.350542 0.509777
v -0.0567475 1.96804 0.0772627 0 1 0
vn -0.589669 0.350542 0.727606
v -0.0299973 1.96804 0.0908927 0 1 0
vn -0.335966 0.350542 0.874212
v -0.000344551 1.79736 0.0955892 0 1 0
vn -7.95479e-14 -8.67194e-08 1
v 0.0293083 1.79736 0.0908926 0 1 0
vn 0.309017 -3.65966e-07 0.951057
v 0.0560586 1.79736 0.0772627 0 1 0
vn 0.587785 -6.09389e-07 0.809017
v 0.0772877 1.79736 0.0560336 0 1 0
vn 0.809017 -7.93161e-07 0.587785
v 0.0909176 1.79736 0.0292834 0 1 0
vn 0.951057 -8.99293e-07 0.309017
v 0.0956142 1.79736 -0.000369522 0 1 0
vn 1 -9.17396e-07 2.35645e-16
v 0.0909176 1.79736 -0.0300224 0 1 0
vn 0.951057 -8.45697e-07 -0.309017
v 0.0772877 1.79736 -0.0567726 0 1 0
vn 0.809017 -6.91216e-07 -0.587785
v 0.0560586 1.79736 -0.0780018 0 1 0
vn 0.587785 -4.69074e-07 -0.809017
v 0.0293083 1.79736 -0.0916317 0 1 0
vn 0.309017 -2.01016e-07 -0.951057
v -0.000344551 1.79736 -0.0963282 0 1 0
vn 7.97943e-14 8.67194e-08 -1
v -0.0299974 1.79736 -0.0916317 0 1 0
vn -0.309017 3.65966e-07 -0.951057
v -0.0567477 1.79736 -0.0780018 0 1 0
vn -0.587785 6.09389e-07 -0.809017
v -0.0779768 1.79736 -0.0567726 0 1 0
vn -0.809017 7.93161e-07 -0.587785
v -0.0916067 1.79736 -0.0300224 0 1 0
vn -0.951057 8.99293e-07 -0.309017
v -0.0963033 1.79736 -0.000369522 0 1 0
vn -1 9.17396e-07 -2.46356e-16
v -0.0916067 1.79736 0.0292834 0 1 0
vn -0.951057 8.45697e-07 0.309017
v -0.0779768 1.79736 0.0560336 0 1 0
vn -0.809017 6.91216e-07 0.587785
v -0.0567477 1.79736 0.0772627 0 1 0
vn -0.587785 4.69074e-07 0.809017
v -0.0299974 1.79736 0.0908926 0 1 0
vn -0.309017 2.01016e-07 0.951057
v -0.000344708 1.62668 0.0955892 0 1 0
vn -7.95551e-14 -8.67194e-08 1
v 0.0293082 1.62668 0.0908926 0 1 0
vn 0.309017 -3.65966e-07 0.951057
v 0.0560584 1.62668 0.0772627 0 1 0
vn 0.587785 -6.09389e-07 0.809017
v 0.0772875 1.62668 0.0560336 0 1 0
vn 0.809017 -7.93161e-07 0.587785
v 0.0909175 1.62668 0.0292833 0 1 0
vn 0.951057 -8.99293e-07 0.309017
v 0.095614 1.62668 -0.000369537 0 1 0
vn 1 -9.17396e-07 2.28504e-16
v 0.0909175 1.62668 -0.0300224 0 1 0
vn 0.951057 -8.45697e-07 -0.309017
v 0.0772875 1.62668 -0.0567727 0 1 0
vn 0.809017 -6.91216e-07 -0.587785
v 0.0560584 1.62668 -0.0780018 0 1 0
vn 0.587785 -4.69074e-07 -0.809017
v 0.0293082 1.62668 -0.0916317 0 1 0
vn 0.309017 -2.01016e-07 -0.951057
v -0.000344708 1.62668 -0.0963283 0 1 0
vn 7.97836e-14 8.67194e-08 -1
v -0.0299976 1.62668 -0.0916317 0 1 0
vn -0.309017 3.65966e-07 -0.951057
v -0.0567478 1.62668 -0.0780018 0 1 0
vn -0.587785 6.09389e-07 -0.809017
v -0.0779769 1.62668 -0.0567727 0 1 0
vn -0.809017 7.93161e-07 -0.587785
v -0.0916069 1.62668 -0.0300224 0 1 0
vn -0.951057 8.99293e-07 -0.309017
v -0.0963034 1.62668 -0.000369537 0 1 0
vn -1 9.17396e-07 -2.42785e-16
v -0.0916069 1.62668 0.0292833 0 1 0
vn -0.951057 8.45697e-07 0.309017
v -0.0779769 1.62668 0.0560336 0 1 0
vn -0.809017 6.91216e-07 0.587785
v -0.0567478 1.62668 0.0772627 0 1 0
vn -0.587785 4.69074e-07 0.809017
v -0.0299976 1.62668 0.0908926 0 1 0
vn -0.309017 2.01016e-07 0.951057
v -0.000344864 1.456 0.0955892 0 1 0
vn -7.95551e-14 -8.67194e-08 1
v 0.029308 1.456 0.0908926 0 1 0
vn 0.309017 -3.65966e-07 0.951057
v 0.0560583 1.456 0.0772627 0 1 0
vn 0.587785 -6.09389e-07 0.809017
v 0.0772874 1.456 0.0560336 0 1 0
vn 0.809017 -7.93161e-07 0.587785
v 0.0909173 1.456 0.0292833 0 1 0
vn 0.951057 -8.99293e-07 0.309017
v 0.0956139 1.456 -0.000369552 0 1 0
vn 1 -9.17396e-07 2.42785e-16
v 0.0909173 1.456 -0.0300224 0 1 0
vn 0.951057 -8.45697e-07 -0.309017
v 0.0772874 1.456 -0.0567727 0 1 0
vn 0.809017 -6.91216e-07 -0.587785
v 0.0560583 1.456 -0.0780018 0 1 0
vn 0.587785 -4.69074e-07 -0.809017
v 0.029308 1.456 -0.0916317 0 1 0
vn 0.309017 -2.01016e-07 -0.951057
v -0.000344864 1.456 -0.0963283 0 1 0
vn 7.98014e-14 8.67194e-08 -1
v -0.0299977 1.456 -0.0916317 0 1 0
vn -0.309017 3.65966e-07 -0.951057
v -0.056748 1.456 -0.0780018 0 1 0
vn -0.587785 6.09389e-07 -0.809017
v -0.0779771 1.456 -0.0567727 0 1 0
vn -0.809017 7.93161e-07 -0.587785
v -0.091607 1.456 -0.0300224 0 1 0
vn -0.951057 8.99293e-07 -0.309017
v -0.0963036 1.456 -0.000369552 0 1 0
vn -1 9.17396e-07 -2.53496e-16
v -0.091607 1.456 0.0292833 0 1 0
vn -0.951057 8.45697e-07 0.309017
v -0.0779771 1.456 0.0560336 0 1 0
vn -0.809017 6.91216e-07 0.587785
v -0.056748 1.456 0.0772627 0 1 0
vn -0.587785 4.69074e-07 0.809017
v -0.0299977 1.456 0.0908926 0 1 0
vn -0.309017 2.01016e-07 0.951057
v -0.000345021 1.28532 0.0955892 0 1 0
vn 0.0493757 -0.350542 0.935245
v 0.0293079 1.28532 0.0908926 0 1 0
vn 0.335966 -0.350542 0.874212
v 0.0560581 1.28532 0.0772627 0 1 0
vn 0.589669 -0.350542 0.727606
v 0.0772872 1.28532 0.0560336 0 1 0
vn 0.785651 -0.350543 0.509777
v 0.0909171 1.28532 0.0292833 0 1 0
vn 0.904728 -0.350543 0.242047
v 0.0956137 1.28532 -0.000369567 0 1 0
vn 0.935244 -0.350543 -0.0493761
v 0.0909171 1.28532 -0.0300224 0 1 0
vn 0.874212 -0.350543 -0.335966
v 0.0772872 1.28532 -0.0567727 0 1 0
vn 0.727606 -0.350542 -0.589669
v 0.0560581 1.28532 -0.0780018 0 1 0
vn 0.509777 -0.350542 -0.785651
v 0.0293079 1.28532 -0.0916317 0 1 0
vn 0.242047 -0.350542 -0.904729
v -0.000345021 1.28532 -0.0963283 0 1 0
vn -0.0493764 -0.350542 -0.935245
v -0.0299979 1.28532 -0.0916317 0 1 0
vn -0.335966 -0.350541 -0.874212
v -0.0567481 1.28532 -0.0780018 0 1 0
vn -0.589669 -0.350541 -0.727606
v -0.0779773 1.28532 -0.0567727 0 1 0
vn -0.785652 -0.350541 -0.509777
v -0.0916072 1.28532 -0.0300224 0 1 0
vn -0.904729 -0.350541 -0.242047
v -0.0963037 1.28532 -0.000369567 0 1 0
vn -0.935245 -0.350541 0.049376
v -0.0916072 1.28532 0.0292833 0 1 0
vn -0.874213 -0.350541 0.335966
v -0.0779773 1.28532 0.0560336 0 1 0
vn -0.727607 -0.350541 0.589669
v -0.0567481 1.28532 0.0772627 0 1 0
vn -0.509777 -0.350541 0.785651
v -0.0299979 1.28532 0.0908926 0 1 0
vn -0.242047 -0.350542 0.904728
f 1//1 3//3 4//4
f 2//2 84//84 83//83
f 1//1 4//4 5//5
f 2//2 85//85 84//84
f 1//1 5//5 6//6
f 2//2 86//86 85//85
f 1//1 6//6 7//7
f 2//2 87//87 86//86
f 1//1 7//7 8//8
f 2//2 88//88 87//87
f 1//1 8//8 9//9
f 2//2 89//89 88//88
f 1//1 9//9 10//10
f 2//2 90//90 89//89
f 1//1 10//10 11//11
f 2//2 91//91 90//90
f 1//1 11//11 12//12
f 2//2 92//92 91//91
f 1//1 12//12 13//13
f 2//2 93//93 92//92
f 1//1 13//13 14//14
f 2//2 94//94 93//93
f 1//1 14//14 15//15
f 2//2 95//95 94//94
f 1//1 15//15 16//16
f 2//2 96//96 95//95
f 1//1 16//16 17//17
f 2//2 97//97 96//96
f 1//1 17//17 18//18
f 2//2 98//98 97//97
f 1//1 18//18 19//19
f 2//2 99//99 98//98
f 1//1 19//19 20//20
f 2//2 100//100 99//99
f 1//1 20//20 21//21
f 2//2 101//101 100//100
f 1//1 21//21 22//22
f 2//2 102//102 101//101
f 1//1 22//22 3//3
f 2//2 83//83 102//102
f 23//23 4//4 3//3
f 23//23 24//24 4//4
f 24//24 5//5 4//4
f 24//24 25//25 5//5
f 25//25 6//6 5//5
f 25//25 26//26 6//6
f 26//26 7//7 6//6
f 26//26 27//27 7//7
f 27//27 8//8 7//7
f 27//27 28//28 8//8
f 28//28 9//9 8//8
f 28//28 29//29 9//9
f 29//29 10//10 9//9
f 29//29 30//30 10//10
f 30//30 11//11 10//10
f 30//30 31//31 11//11
f 31//31 12//12 11//11
f 31//31 32//32 12//12
f 32//32 13//13 12//12
f 32//32 33//33 13//13
f 33//33 14//14 13//13
f 33//33 34//34 14//14
f 34//34 15//15 14//14
f 34//34 35//35 15//15
f 35//35 16//16 15//15
f 35//35 36//36 16//16
f 36//36 17//17 16//16
f 36//36 37//37 17//17
f 37//37 18//18 17//17
f 37//37 38//38 18//18
f 38//38 19//19 18//18
f 38//38 39//39 19//19
f 39//39 20//20 19//19
f 39//39 40//40 20//20
f 40//40 21//21 20//20
f 40//40 41//41 21//21
f 41//41 22//22 21//21
f 41//41 42//42 22//22
f 42//42 3//3 22//22
f 42//42 23//23 3//3
f 43//43 24//24 23//23
f 43//43 44//44 24//24
f 44//44 25//25 24//24
f 44//44 45//45 25//25
f 45//45 26//26 25//25
f 45//45 46//46 26//26
f 46//46 27//27 26//26
f 46//46 47//47 27//27
f 47//47 28//28 27//27
f 47//47 48//48 28//28
f 48//48 29//29 28//28
f 48//48 49//49 29//29
f 49//49 30//30 29//29
f 49//49 50//50 30//30
f 50//50 31//31 30//30
f 50//50 51//51 31//31
f 51//51 32//32 31//31
f 51//51 52//52 32//32
f 52//52 33//33 32//32
f 52//52 53//53 33//33
f 53//53 34//34 33//33
f 53//53 54//54 34//34
f 54//54 35//35 34//34
f 54//54 55//55 35//35
f 55//55 36//36 35//35
f 55//55 56//56 36//36
f 56//56 37//37 36//36
f 56//56 57//57 37//37
f 57//57 38//38 37//37
f 57//57 58//58 38//38
f 58//58 39//39 38//38
f 58//58 59//59 39//39
f 59//59 40//40 39//39
f 59//59 60//60 40//40
f 60//60 41//41 40//40
f 60//60 61//61 41//41
f 61//61 42//42 41//41
f 61//61 62//62 42//42
f 62//62 23//23 42//42
f 62//62 43//43 23//23
f 63//63 44//44 43//43
f 63//63 64//64 44//44
f 64//64 45//45 44//44
f 64//64 65//65 45//45
f 65//65 46//46 45//45
f 65//65 66//66 46//46
f 66//66 47//47 46//46
f 66//66 67//67 47//47
f 67//67 48//48 47//47
f 67//67 68//68 48//48
f 68//68 49//49 48//48
f 68//68 69//69 49//49
f 69//69 50//50 49//49
f 69//69 70//70 50//50
f 70//70 51//51 50//50
f 70//70 71//71 51//51
f 71//71 52//52 51//51
f 71//71 72//72 52//52
f 72//72 53//53 52//52
f 72//72 73//73 53//53
f 73//73 54//54 53//53
f 73//73 74//74 54//54
f 74//74 55//55 54//54
f 74//74 75//75 55//55
f 75//75 56//56 55//55
f 75//75 76//76 56//56
f 76//76 57//57 56//56
f 76//76 77//77 57//57
f 77//77 58//58 57//57
f 77//77 78//78 58//58
f 78//78 59//59 58//58
f 78//78 79//79 59//59
f 79//79 60//60 59//59
f 79//79 80//80 60//60
f 80//80 61//61 60//60
f 80//80 81//81 61//61
f 81//81 62//62 61//61
f 81//81 82//82 62//62
f 82//82 43//43 62//62
f 82//82 63//63 43//43
f 83//83 64//64 63//63
f 83//83 84//84 64//64
f 84//84 65//65 64//64
f 84//84 85//85 65//65
f 85//85 66//66 65//65
f 85//85 86//86 66//66
f 86//86 67//67 66//66
f 86//86 87//87 67//67
f 87//87 68//68 67//67
f 87//87 88//88 68//68
f 88//88 69//69 68//68
f 88//88 89//89 69//69
f 89//89 70//70 69//69
f 89//89 90//90 70//70
f 90//90 71//71 70//70
f 90//90 91//91 71//71
f 91//91 72//72 71//71
f 91//91 92//92 72//72
f 92//92 73//73 72//72
f 92//92 93//93 73//73
f 93//93 74//74 73//73
f 93//93 94//94 74//74
f 94//94 75//75 74//74
f 94//94 95//95 75//75
f 95//95 76//76 75//75
f 95//95 96//96 76//76
f 96//96 77//77 76//76
f 96//96 97//97 77//77
f 97//97 78//78 77//77
f 97//97 98//98 78//78
f 98//98 79//79 78//78
f 98//98 99//99 79//79
f 99//99 80//80 79//79
f 99//99 100//100 80//80
f 100//100 81//81 80//80
f 100//100 101//101 81//81
f 101//101 82//82 81//81
f 101//101 102//102 82//82
f 102//102 63//63 82//82
f 102//102 83//83 63//63
