# Created by Open3D 
# object name: 13
# number of vertices: 102
# number of triangles: 200
v 5.67031 -3.48047e-05 1.16307e-05 0 1 0
vn -1 -3.32003e-05 5.61387e-05
v 7.30631 1.9511e-05 -8.0212e-05 0 1 0
vn 1 3.32003e-05 -5.61387e-05
v 5.67032 -3.48045e-05 0.0964596 0 1 0
vn -0.155034 -0.0520886 0.986535
v 5.67031 0.0297693 0.0917391 0 1 0
vn -0.155046 0.255314 0.954346
v 5.67031 0.0566559 0.0780397 0 1 0
vn -0.155063 0.537724 0.828739
v 5.67031 0.0779932 0.0567023 0 1 0
vn -0.155082 0.767497 0.622011
v 5.67031 0.0916927 0.0298157 0 1 0
vn -0.155102 0.922142 0.354396
v 5.67031 0.0964132 1.16307e-05 0 1 0
vn -0.155121 0.986521 0.0520922
v 5.67031 0.0916927 -0.0297924 0 1 0
vn -0.155137 0.954332 -0.25531
v 5.6703 0.0779932 -0.0566791 0 1 0
vn -0.155149 0.828725 -0.53772
v 5.6703 0.0566559 -0.0780164 0 1 0
vn -0.155155 0.621997 -0.767494
v 5.6703 0.0297693 -0.0917158 0 1 0
vn -0.155155 0.354383 -0.922139
v 5.6703 -3.48049e-05 -0.0964363 0 1 0
vn -0.155148 0.0520783 -0.986518
v 5.67031 -0.0298389 -0.0917158 0 1 0
vn -0.155136 -0.255324 -0.954328
v 5.67031 -0.0567255 -0.0780164 0 1 0
vn -0.15512 -0.537734 -0.828722
v 5.67031 -0.0780629 -0.0566791 0 1 0
vn -0.155101 -0.767508 -0.621993
v 5.67031 -0.0917623 -0.0297924 0 1 0
vn -0.155081 -0.922153 -0.354379
v 5.67031 -0.0964828 1.16307e-05 0 1 0
vn -0.155062 -0.986531 -0.0520748
v 5.67031 -0.0917623 0.0298157 0 1 0
vn -0.155045 -0.954342 0.255328
v 5.67032 -0.0780629 0.0567023 0 1 0
vn -0.155034 -0.828736 0.537738
v 5.67032 -0.0567255 0.0780397 0 1 0
vn -0.155028 -0.622007 0.767511
v 5.67032 -0.0298389 0.0917391 0 1 0
vn -0.155028 -0.354393 0.922156
v 6.07931 -2.12256e-05 0.0964366 0 1 0
vn 5.61387e-05 1.86382e-09 1
v 6.07931 0.0297828 0.0917161 0 1 0
vn 4.31316e-05 0.309017 0.951057
v 6.07931 0.0566695 0.0780167 0 1 0
vn 2.59025e-05 0.587785 0.809017
v 6.07931 0.0780068 0.0566794 0 1 0
vn 6.13786e-06 0.809017 0.587785
v 6.07931 0.0917062 0.0297927 0 1 0
vn -1.42276e-05 0.951057 0.309017
v 6.07931 0.0964267 -1.133e-05 0 1 0
vn -3.32003e-05 1 2.4904e-16
v 6.0793 0.0917062 -0.0298154 0 1 0
vn -4.89232e-05 0.951057 -0.309017
v 6.0793 0.0780068 -0.056702 0 1 0
vn -5.98571e-05 0.809017 -0.587785
v 6.0793 0.0566695 -0.0780394 0 1 0
vn -6.49318e-05 0.587785 -0.809017
v 6.0793 0.0297828 -0.0917388 0 1 0
vn -6.36505e-05 0.309017 -0.951057
v 6.0793 -2.1226e-05 -0.0964593 0 1 0
vn -5.61387e-05 -1.86382e-09 -1
v 6.07931 -0.0298253 -0.0917388 0 1 0
vn -4.31316e-05 -0.309017 -0.951057
v 6.07931 -0.0567119 -0.0780394 0 1 0
vn -2.59025e-05 -0.587785 -0.809017
v 6.07931 -0.0780493 -0.056702 0 1 0
vn -6.13786e-06 -0.809017 -0.587785
v 6.07931 -0.0917487 -0.0298154 0 1 0
vn 1.42276e-05 -0.951057 -0.309017
v 6.07931 -0.0964692 -1.133e-05 0 1 0
vn 3.32003e-05 -1 -2.52005e-16
v 6.07931 -0.0917487 0.0297927 0 1 0
vn 4.89232e-05 -0.951057 0.309017
v 6.07932 -0.0780493 0.0566794 0 1 0
vn 5.98571e-05 -0.809017 0.587785
v 6.07932 -0.0567119 0.0780167 0 1 0
vn 6.49318e-05 -0.587785 0.809017
v 6.07932 -0.0298253 0.0917161 0 1 0
vn 6.36505e-05 -0.309017 0.951057
v 6.48831 -7.64668e-06 0.0964137 0 1 0
vn 5.61387e-05 1.86382e-09 1
v 6.48831 0.0297964 0.0916932 0 1 0
vn 4.31316e-05 0.309017 0.951057
v 6.48831 0.056683 0.0779938 0 1 0
vn 2.59025e-05 0.587785 0.809017
v 6.48831 0.0780204 0.0566564 0 1 0
vn 6.13786e-06 0.809017 0.587785
v 6.48831 0.0917198 0.0297698 0 1 0
vn -1.42276e-05 0.951057 0.309017
v 6.48831 0.0964403 -3.42906e-05 0 1 0
vn -3.32003e-05 1 2.43111e-16
v 6.4883 0.0917198 -0.0298384 0 1 0
vn -4.89232e-05 0.951057 -0.309017
v 6.4883 0.0780204 -0.056725 0 1 0
vn -5.98571e-05 0.809017 -0.587785
v 6.4883 0.056683 -0.0780623 0 1 0
vn -6.49318e-05 0.587785 -0.809017
v 6.4883 0.0297964 -0.0917618 0 1 0
vn -6.36505e-05 0.309017 -0.951057
v 6.4883 -7.64704e-06 -0.0964823 0 1 0
vn -5.61387e-05 -1.86382e-09 -1
v 6.48831 -0.0298117 -0.0917618 0 1 0
vn -4.31316e-05 -0.309017 -0.951057
v 6.48831 -0.0566983 -0.0780623 0 1 0
vn -2.59025e-05 -0.587785 -0.809017
v 6.48831 -0.0780357 -0.056725 0 1 0
vn -6.13786e-06 -0.809017 -0.587785
v 6.48831 -0.0917351 -0.0298384 0 1 0
vn 1.42276e-05 -0.951057 -0.309017
v 6.48831 -0.0964556 -3.42906e-05 0 1 0
vn 3.32003e-05 -1 -2.4904e-16
v 6.48831 -0.0917351 0.0297698 0 1 0
vn 4.89232e-05 -0.951057 0.309017
v 6.48831 -0.0780357 0.0566564 0 1 0
vn 5.98571e-05 -0.809017 0.587785
v 6.48832 -0.0566983 0.0779938 0 1 0
vn 6.49318e-05 -0.587785 0.809017
v 6.48832 -0.0298117 0.0916932 0 1 0
vn 6.36505e-05 -0.309017 0.951057
v 6.89731 5.93224e-06 0.0963907 0 1 0
vn 5.61387e-05 1.86382e-09 1
v 6.89731 0.02981 0.0916702 0 1 0
vn 4.31316e-05 0.309017 0.951057
v 6.89731 0.0566966 0.0779708 0 1 0
vn 2.59025e-05 0.587785 0.809017
v 6.89731 0.078034 0.0566334 0 1 0
vn 6.13786e-06 0.809017 0.587785
v 6.89731 0.0917334 0.0297468 0 1 0
vn -1.42276e-05 0.951057 0.309017
v 6.89731 0.0964539 -5.72513e-05 0 1 0
vn -3.32003e-05 1 2.57935e-16
v 6.8973 0.0917334 -0.0298613 0 1 0
vn -4.89232e-05 0.951057 -0.309017
v 6.8973 0.078034 -0.0567479 0 1 0
vn -5.98571e-05 0.809017 -0.587785
v 6.8973 0.0566966 -0.0780853 0 1 0
vn -6.49318e-05 0.587785 -0.809017
v 6.8973 0.02981 -0.0917847 0 1 0
vn -6.36505e-05 0.309017 -0.951057
v 6.8973 5.93188e-06 -0.0965052 0 1 0
vn -5.61387e-05 -1.86382e-09 -1
v 6.8973 -0.0297981 -0.0917847 0 1 0
vn -4.31316e-05 -0.309017 -0.951057
v 6.89731 -0.0566848 -0.0780853 0 1 0
vn -2.59025e-05 -0.587785 -0.809017
v 6.89731 -0.0780221 -0.0567479 0 1 0
vn -6.13786e-06 -0.809017 -0.587785
v 6.89731 -0.0917215 -0.0298613 0 1 0
vn 1.42276e-05 -0.951057 -0.309017
v 6.89731 -0.096442 -5.72513e-05 0 1 0
vn 3.32003e-05 -1 -2.57935e-16
v 6.89731 -0.0917215 0.0297468 0 1 0
vn 4.89232e-05 -0.951057 0.309017
v 6.89731 -0.0780221 0.0566334 0 1 0
vn 5.98571e-05 -0.809017 0.587785
v 6.89732 -0.0566848 0.0779708 0 1 0
vn 6.49318e-05 -0.587785 0.809017
v 6.89731 -0.0297981 0.0916702 0 1 0
vn 6.36505e-05 -0.309017 0.951057
v 7.30631 1.95112e-05 0.0963678 0 1 0
vn 0.155145 0.0520886 0.986518
v 7.30631 0.0298236 0.0916473 0 1 0
vn 0.155131 0.354393 0.922139
v 7.30631 0.0567102 0.0779478 0 1 0
vn 0.155114 0.622007 0.767494
v 7.30631 0.0780476 0.0566105 0 1 0
vn 0.155094 0.828736 0.53772
v 7.30631 0.091747 0.0297238 0 1 0
vn 0.155074 0.954342 0.25531
v 7.30631 0.0964675 -8.0212e-05 0 1 0
vn 0.155056 0.986531 -0.0520922
v 7.3063 0.091747 -0.0298843 0 1 0
vn 0.155041 0.922153 -0.354396
v 7.3063 0.0780476 -0.0567709 0 1 0
vn 0.155031 0.767508 -0.622011
v 7.3063 0.0567102 -0.0781083 0 1 0
vn 0.155027 0.537734 -0.828739
v 7.3063 0.0298236 -0.0918077 0 1 0
vn 0.155029 0.255324 -0.954346
v 7.3063 1.95108e-05 -0.0965282 0 1 0
vn 0.155038 -0.0520783 -0.986535
v 7.3063 -0.0297846 -0.0918077 0 1 0
vn 0.155051 -0.354383 -0.922156
v 7.30631 -0.0566712 -0.0781083 0 1 0
vn 0.155069 -0.621997 -0.767511
v 7.30631 -0.0780085 -0.0567709 0 1 0
vn 0.155089 -0.828725 -0.537738
v 7.30631 -0.091708 -0.0298843 0 1 0
vn 0.155109 -0.954332 -0.255328
v 7.30631 -0.0964285 -8.0212e-05 0 1 0
vn 0.155127 -0.986521 0.0520748
v 7.30631 -0.091708 0.0297238 0 1 0
vn 0.155142 -0.922142 0.354379
v 7.30631 -0.0780085 0.0566105 0 1 0
vn 0.155152 -0.767497 0.621993
v 7.30631 -0.0566712 0.0779478 0 1 0
vn 0.155156 -0.537724 0.828722
v 7.30631 -0.0297846 0.0916473 0 1 0
vn 0.155153 -0.255314 0.954328
f 1//1 3//3 4//4
f 2//2 84//84 83//83
f 1//1 4//4 5//5
f 2//2 85//85 84//84
f 1//1 5//5 6//6
f 2//2 86//86 85//85
f 1//1 6//6 7//7
f 2//2 87//87 86//86
f 1//1 7//7 8//8
f 2//2 88//88 87//87
f 1//1 8//8 9//9
f 2//2 89//89 88//88
f 1//1 9//9 10//10
f 2//2 90//90 89//89
f 1//1 10//10 11//11
f 2//2 91//91 90//90
f 1//1 11//11 12//12
f 2//2 92//92 91//91
f 1//1 12//12 13//13
f 2//2 93//93 92//92
f 1//1 13//13 14//14
f 2//2 94//94 93//93
f 1//1 14//14 15//15
f 2//2 95//95 94//94
f 1//1 15//15 16//16
f 2//2 96//96 95//95
f 1//1 16//16 17//17
f 2//2 97//97 96//96
f 1//1 17//17 18//18
f 2//2 98//98 97//97
f 1//1 18//18 19//19
f 2//2 99//99 98//98
f 1//1 19//19 20//20
f 2//2 100//100 99//99
f 1//1 20//20 21//21
f 2//2 101//101 100//100
f 1//1 21//21 22//22
f 2//2 102//102 101//101
f 1//1 22//22 3//3
f 2//2 83//83 102//102
f 23//23 4//4 3//3
f 23//23 24//24 4//4
f 24//24 5//5 4//4
f 24//24 25//25 5//5
f 25//25 6//6 5//5
f 25//25 26//26 6//6
f 26//26 7//7 6//6
f 26//26 27//27 7//7
f 27//27 8//8 7//7
f 27//27 28//28 8//8
f 28//28 9//9 8//8
f 28//28 29//29 9//9
f 29//29 10//10 9//9
f 29//29 30//30 10//10
f 30//30 11//11 10//10
f 30//30 31//31 11//11
f 31//31 12//12 11//11
f 31//31 32//32 12//12
f 32//32 13//13 12//12
f 32//32 33//33 13//13
f 33//33 14//14 13//13
f 33//33 34//34 14//14
f 34//34 15//15 14//14
f 34//34 35//35 15//15
f 35//35 16//16 15//15
f 35//35 36//36 16//16
f 36//36 17//17 16//16
f 36//36 37//37 17//17
f 37//37 18//18 17//17
f 37//37 38//38 18//18
f 38//38 19//19 18//18
f 38//38 39//39 19//19
f 39//39 20//20 19//19
f 39//39 40//40 20//20
f 40//40 21//21 20//20
f 40//40 41//41 21//21
f 41//41 22//22 21//21
f 41//41 42//42 22//22
f 42//42 3//3 22//22
f 42//42 23//23 3//3
f 43//43 24//24 23//23
f 43//43 44//44 24//24
f 44//44 25//25 24//24
f 44//44 45//45 25//25
f 45//45 26//26 25//25
f 45//45 46//46 26//26
f 46//46 27//27 26//26
f 46//46 47//47 27//27
f 47//47 28//28 27//27
f 47//47 48//48 28//28
f 48//48 29//29 28//28
f 48//48 49//49 29//29
f 49//49 30//30 29//29
f 49//49 50//50 30//30
f 50//50 31//31 30//30
f 50//50 51//51 31//31
f 51//51 32//32 31//31
f 51//51 52//52 32//32
f 52//52 33//33 32//32
f 52//52 53//53 33//33
f 53//53 34//34 33//33
f 53//53 54//54 34//34
f 54//54 35//35 34//34
f 54//54 55//55 35//35
f 55//55 36//36 35//35
f 55//55 56//56 36//36
f 56//56 37//37 36//36
f 56//56 57//57 37//37
f 57//57 38//38 37//37
f 57//57 58//58 38//38
f 58//58 39//39 38//38
f 58//58 59//59 39//39
f 59//59 40//40 39//39
f 59//59 60//60 40//40
f 60//60 41//41 40//40
f 60//60 61//61 41//41
f 61//61 42//42 41//41
f 61//61 62//62 42//42
f 62//62 23//23 42//42
f 62//62 43//43 23//23
f 63//63 44//44 43//43
f 63//63 64//64 44//44
f 64//64 45//45 44//44
f 64//64 65//65 45//45
f 65//65 46//46 45//45
f 65//65 66//66 46//46
f 66//66 47//47 46//46
f 66//66 67//67 47//47
f 67//67 48//48 47//47
f 67//67 68//68 48//48
f 68//68 49//49 48//48
f 68//68 69//69 49//49
f 69//69 50//50 49//49
f 69//69 70//70 50//50
f 70//70 51//51 50//50
f 70//70 71//71 51//51
f 71//71 52//52 51//51
f 71//71 72//72 52//52
f 72//72 53//53 52//52
f 72//72 73//73 53//53
f 73//73 54//54 53//53
f 73//73 74//74 54//54
f 74//74 55//55 54//54
f 74//74 75//75 55//55
f 75//75 56//56 55//55
f 75//75 76//76 56//56
f 76//76 57//57 56//56
f 76//76 77//77 57//57
f 77//77 58//58 57//57
f 77//77 78//78 58//58
f 78//78 59//59 58//58
f 78//78 79//79 59//59
f 79//79 60//60 59//59
f 79//79 80//80 60//60
f 80//80 61//61 60//60
f 80//80 81//81 61//61
f 81//81 62//62 61//61
f 81//81 82//82 62//62
f 82//82 43//43 62//62
f 82//82 63//63 43//43
f 83//83 64//64 63//63
f 83//83 84//84 64//64
f 84//84 65//65 64//64
f 84//84 85//85 65//65
f 85//85 66//66 65//65
f 85//85 86//86 66//66
f 86//86 67//67 66//66
f 86//86 87//87 67//67
f 87//87 68//68 67//67
f 87//87 88//88 68//68
f 88//88 69//69 68//68
f 88//88 89//89 69//69
f 89//89 70//70 69//69
f 89//89 90//90 70//70
f 90//90 71//71 70//70
f 90//90 91//91 71//71
f 91//91 72//72 71//71
f 91//91 92//92 72//72
f 92//92 73//73 72//72
f 92//92 93//93 73//73
f 93//93 74//74 73//73
f 93//93 94//94 74//74
f 94//94 75//75 74//74
f 94//94 95//95 75//75
f 95//95 76//76 75//75
f 95//95 96//96 76//76
f 96//96 77//77 76//76
f 96//96 97//97 77//77
f 97//97 78//78 77//77
f 97//97 98//98 78//78
f 98//98 79//79 78//78
f 98//98 99//99 79//79
f 99//99 80//80 79//79
f 99//99 100//100 80//80
f 100//100 81//81 80//80
f 100//100 101//101 81//81
f 101//101 82//82 81//81
f 101//101 102//102 82//82
f 102//102 63//63 82//82
f 102//102 83//83 63//63
