# Created by Open3D 
# object name: 15
# number of vertices: 102
# number of triangles: 200
v 2.44171 -1.26563 0.00062381 0 1 0
vn 1.56056e-05 1 -4.90425e-07
v 2.4417 -1.98821 0.000624164 0 1 0
vn -1.56056e-05 -1 4.90425e-07
v 2.44171 -1.26563 0.0964816 0 1 0
vn -0.0497054 0.333097 0.941581
v 2.47133 -1.26563 0.09179 0 1 0
vn 0.243692 0.333093 0.910859
v 2.49805 -1.26563 0.0781744 0 1 0
vn 0.513236 0.333089 0.790974
v 2.51926 -1.26563 0.0569676 0 1 0
vn 0.732541 0.333085 0.593664
v 2.53288 -1.26563 0.0302455 0 1 0
vn 0.880141 0.333083 0.338242
v 2.53757 -1.26563 0.00062381 0 1 0
vn 0.941587 0.333082 0.0497105
v 2.53288 -1.26563 -0.0289979 0 1 0
vn 0.910864 0.333082 -0.243687
v 2.51926 -1.26563 -0.05572 0 1 0
vn 0.79098 0.333084 -0.513231
v 2.49805 -1.26563 -0.0769268 0 1 0
vn 0.59367 0.333087 -0.732536
v 2.47133 -1.26563 -0.0905424 0 1 0
vn 0.338248 0.33309 -0.880136
v 2.44171 -1.26563 -0.095234 0 1 0
vn 0.0497158 0.333095 -0.941582
v 2.41209 -1.26563 -0.0905424 0 1 0
vn -0.243682 0.3331 -0.910859
v 2.38537 -1.26563 -0.0769268 0 1 0
vn -0.513226 0.333104 -0.790975
v 2.36416 -1.26563 -0.05572 0 1 0
vn -0.732531 0.333107 -0.593665
v 2.35054 -1.26563 -0.0289979 0 1 0
vn -0.880131 0.33311 -0.338242
v 2.34585 -1.26563 0.00062381 0 1 0
vn -0.941576 0.333111 -0.0497108
v 2.35054 -1.26563 0.0302455 0 1 0
vn -0.910853 0.333111 0.243687
v 2.36416 -1.26563 0.0569676 0 1 0
vn -0.790969 0.333109 0.513231
v 2.38537 -1.26563 0.0781744 0 1 0
vn -0.593659 0.333106 0.732536
v 2.41209 -1.26563 0.09179 0 1 0
vn -0.338237 0.333102 0.880136
v 2.44171 -1.44627 0.0964817 0 1 0
vn 7.65337e-12 4.90425e-07 1
v 2.47133 -1.44627 0.0917901 0 1 0
vn 0.309017 -4.35597e-06 0.951057
v 2.49805 -1.44627 0.0781745 0 1 0
vn 0.587785 -8.77597e-06 0.809017
v 2.51926 -1.44628 0.0569677 0 1 0
vn 0.809017 -1.23369e-05 0.587785
v 2.53287 -1.44628 0.0302456 0 1 0
vn 0.951057 -1.46902e-05 0.309017
v 2.53756 -1.44628 0.000623898 0 1 0
vn 1 -1.56056e-05 1.68848e-16
v 2.53287 -1.44628 -0.0289978 0 1 0
vn 0.951057 -1.49933e-05 -0.309017
v 2.51926 -1.44628 -0.0557199 0 1 0
vn 0.809017 -1.29134e-05 -0.587785
v 2.49805 -1.44627 -0.0769267 0 1 0
vn 0.587785 -9.56949e-06 -0.809017
v 2.47133 -1.44627 -0.0905423 0 1 0
vn 0.309017 -5.28881e-06 -0.951057
v 2.44171 -1.44627 -0.0952339 0 1 0
vn -7.65298e-12 -4.90425e-07 -1
v 2.41208 -1.44627 -0.0905423 0 1 0
vn -0.309017 4.35597e-06 -0.951057
v 2.38536 -1.44627 -0.0769267 0 1 0
vn -0.587785 8.77597e-06 -0.809017
v 2.36416 -1.44627 -0.0557199 0 1 0
vn -0.809017 1.23369e-05 -0.587785
v 2.35054 -1.44627 -0.0289978 0 1 0
vn -0.951057 1.46902e-05 -0.309017
v 2.34585 -1.44627 0.000623898 0 1 0
vn -1 1.56056e-05 -1.82355e-16
v 2.35054 -1.44627 0.0302456 0 1 0
vn -0.951057 1.49933e-05 0.309017
v 2.36416 -1.44627 0.0569677 0 1 0
vn -0.809017 1.29134e-05 0.587785
v 2.38536 -1.44627 0.0781745 0 1 0
vn -0.587785 9.56949e-06 0.809017
v 2.41208 -1.44627 0.0917901 0 1 0
vn -0.309017 5.28881e-06 0.951057
v 2.4417 -1.62692 0.0964818 0 1 0
vn 7.65336e-12 4.90425e-07 1
v 2.47132 -1.62692 0.0917902 0 1 0
vn 0.309017 -4.35597e-06 0.951057
v 2.49805 -1.62692 0.0781746 0 1 0
vn 0.587785 -8.77597e-06 0.809017
v 2.51925 -1.62692 0.0569678 0 1 0
vn 0.809017 -1.23369e-05 0.587785
v 2.53287 -1.62692 0.0302457 0 1 0
vn 0.951057 -1.46902e-05 0.309017
v 2.53756 -1.62692 0.000623987 0 1 0
vn 1 -1.56056e-05 1.75602e-16
v 2.53287 -1.62692 -0.0289977 0 1 0
vn 0.951057 -1.49933e-05 -0.309017
v 2.51925 -1.62692 -0.0557198 0 1 0
vn 0.809017 -1.29134e-05 -0.587785
v 2.49805 -1.62692 -0.0769266 0 1 0
vn 0.587785 -9.56949e-06 -0.809017
v 2.47132 -1.62692 -0.0905422 0 1 0
vn 0.309017 -5.28881e-06 -0.951057
v 2.4417 -1.62692 -0.0952338 0 1 0
vn -7.65305e-12 -4.90425e-07 -1
v 2.41208 -1.62692 -0.0905422 0 1 0
vn -0.309017 4.35597e-06 -0.951057
v 2.38536 -1.62692 -0.0769266 0 1 0
vn -0.587785 8.77597e-06 -0.809017
v 2.36415 -1.62692 -0.0557198 0 1 0
vn -0.809017 1.23369e-05 -0.587785
v 2.35054 -1.62692 -0.0289977 0 1 0
vn -0.951057 1.46902e-05 -0.309017
v 2.34585 -1.62692 0.000623987 0 1 0
vn -1 1.56056e-05 -1.82355e-16
v 2.35054 -1.62692 0.0302457 0 1 0
vn -0.951057 1.49933e-05 0.309017
v 2.36415 -1.62692 0.0569678 0 1 0
vn -0.809017 1.29134e-05 0.587785
v 2.38536 -1.62692 0.0781746 0 1 0
vn -0.587785 9.56949e-06 0.809017
v 2.41208 -1.62692 0.0917902 0 1 0
vn -0.309017 5.28881e-06 0.951057
v 2.4417 -1.80756 0.0964819 0 1 0
vn 7.65337e-12 4.90425e-07 1
v 2.47132 -1.80756 0.0917902 0 1 0
vn 0.309017 -4.35597e-06 0.951057
v 2.49804 -1.80756 0.0781746 0 1 0
vn 0.587785 -8.77597e-06 0.809017
v 2.51925 -1.80756 0.0569679 0 1 0
vn 0.809017 -1.23369e-05 0.587785
v 2.53287 -1.80756 0.0302458 0 1 0
vn 0.951057 -1.46902e-05 0.309017
v 2.53756 -1.80756 0.000624075 0 1 0
vn 1 -1.56056e-05 1.62094e-16
v 2.53287 -1.80756 -0.0289976 0 1 0
vn 0.951057 -1.49933e-05 -0.309017
v 2.51925 -1.80756 -0.0557197 0 1 0
vn 0.809017 -1.29134e-05 -0.587785
v 2.49804 -1.80756 -0.0769265 0 1 0
vn 0.587785 -9.56949e-06 -0.809017
v 2.47132 -1.80756 -0.0905421 0 1 0
vn 0.309017 -5.28881e-06 -0.951057
v 2.4417 -1.80756 -0.0952337 0 1 0
vn -7.65315e-12 -4.90425e-07 -1
v 2.41208 -1.80756 -0.0905421 0 1 0
vn -0.309017 4.35597e-06 -0.951057
v 2.38536 -1.80756 -0.0769265 0 1 0
vn -0.587785 8.77597e-06 -0.809017
v 2.36415 -1.80756 -0.0557197 0 1 0
vn -0.809017 1.23369e-05 -0.587785
v 2.35053 -1.80756 -0.0289976 0 1 0
vn -0.951057 1.46902e-05 -0.309017
v 2.34584 -1.80756 0.000624075 0 1 0
vn -1 1.56056e-05 -1.75602e-16
v 2.35053 -1.80756 0.0302458 0 1 0
vn -0.951057 1.49933e-05 0.309017
v 2.36415 -1.80756 0.0569679 0 1 0
vn -0.809017 1.29134e-05 0.587785
v 2.38536 -1.80756 0.0781746 0 1 0
vn -0.587785 9.56949e-06 0.809017
v 2.41208 -1.80756 0.0917902 0 1 0
vn -0.309017 5.28881e-06 0.951057
v 2.4417 -1.98821 0.0964819 0 1 0
vn 0.0497054 -0.333096 0.941582
v 2.47132 -1.98821 0.0917903 0 1 0
vn 0.338237 -0.333101 0.880136
v 2.49804 -1.98821 0.0781747 0 1 0
vn 0.593659 -0.333105 0.732536
v 2.51925 -1.98821 0.056968 0 1 0
vn 0.790969 -0.333108 0.513231
v 2.53286 -1.98821 0.0302458 0 1 0
vn 0.910853 -0.33311 0.243687
v 2.53756 -1.98821 0.000624164 0 1 0
vn 0.941576 -0.333111 -0.0497105
v 2.53286 -1.98821 -0.0289975 0 1 0
vn 0.880131 -0.33311 -0.338242
v 2.51925 -1.98821 -0.0557196 0 1 0
vn 0.732531 -0.333108 -0.593664
v 2.49804 -1.98821 -0.0769264 0 1 0
vn 0.513226 -0.333105 -0.790974
v 2.47132 -1.98821 -0.090542 0 1 0
vn 0.243682 -0.3331 -0.910859
v 2.4417 -1.98821 -0.0952336 0 1 0
vn -0.0497158 -0.333096 -0.941581
v 2.41208 -1.98821 -0.090542 0 1 0
vn -0.338248 -0.333091 -0.880136
v 2.38535 -1.98821 -0.0769264 0 1 0
vn -0.59367 -0.333087 -0.732536
v 2.36415 -1.98821 -0.0557196 0 1 0
vn -0.79098 -0.333084 -0.513231
v 2.35053 -1.98821 -0.0289975 0 1 0
vn -0.910864 -0.333082 -0.243687
v 2.34584 -1.98821 0.000624164 0 1 0
vn -0.941587 -0.333081 0.0497108
v 2.35053 -1.98821 0.0302458 0 1 0
vn -0.880141 -0.333082 0.338242
v 2.36415 -1.98821 0.056968 0 1 0
vn -0.732541 -0.333084 0.593665
v 2.38535 -1.98821 0.0781747 0 1 0
vn -0.513236 -0.333088 0.790975
v 2.41208 -1.98821 0.0917903 0 1 0
vn -0.243692 -0.333092 0.910859
f 1//1 3//3 4//4
f 2//2 84//84 83//83
f 1//1 4//4 5//5
f 2//2 85//85 84//84
f 1//1 5//5 6//6
f 2//2 86//86 85//85
f 1//1 6//6 7//7
f 2//2 87//87 86//86
f 1//1 7//7 8//8
f 2//2 88//88 87//87
f 1//1 8//8 9//9
f 2//2 89//89 88//88
f 1//1 9//9 10//10
f 2//2 90//90 89//89
f 1//1 10//10 11//11
f 2//2 91//91 90//90
f 1//1 11//11 12//12
f 2//2 92//92 91//91
f 1//1 12//12 13//13
f 2//2 93//93 92//92
f 1//1 13//13 14//14
f 2//2 94//94 93//93
f 1//1 14//14 15//15
f 2//2 95//95 94//94
f 1//1 15//15 16//16
f 2//2 96//96 95//95
f 1//1 16//16 17//17
f 2//2 97//97 96//96
f 1//1 17//17 18//18
f 2//2 98//98 97//97
f 1//1 18//18 19//19
f 2//2 99//99 98//98
f 1//1 19//19 20//20
f 2//2 100//100 99//99
f 1//1 20//20 21//21
f 2//2 101//101 100//100
f 1//1 21//21 22//22
f 2//2 102//102 101//101
f 1//1 22//22 3//3
f 2//2 83//83 102//102
f 23//23 4//4 3//3
f 23//23 24//24 4//4
f 24//24 5//5 4//4
f 24//24 25//25 5//5
f 25//25 6//6 5//5
f 25//25 26//26 6//6
f 26//26 7//7 6//6
f 26//26 27//27 7//7
f 27//27 8//8 7//7
f 27//27 28//28 8//8
f 28//28 9//9 8//8
f 28//28 29//29 9//9
f 29//29 10//10 9//9
f 29//29 30//30 10//10
f 30//30 11//11 10//10
f 30//30 31//31 11//11
f 31//31 12//12 11//11
f 31//31 32//32 12//12
f 32//32 13//13 12//12
f 32//32 33//33 13//13
f 33//33 14//14 13//13
f 33//33 34//34 14//14
f 34//34 15//15 14//14
f 34//34 35//35 15//15
f 35//35 16//16 15//15
f 35//35 36//36 16//16
f 36//36 17//17 16//16
f 36//36 37//37 17//17
f 37//37 18//18 17//17
f 37//37 38//38 18//18
f 38//38 19//19 18//18
f 38//38 39//39 19//19
f 39//39 20//20 19//19
f 39//39 40//40 20//20
f 40//40 21//21 20//20
f 40//40 41//41 21//21
f 41//41 22//22 21//21
f 41//41 42//42 22//22
f 42//42 3//3 22//22
f 42//42 23//23 3//3
f 43//43 24//24 23//23
f 43//43 44//44 24//24
f 44//44 25//25 24//24
f 44//44 45//45 25//25
f 45//45 26//26 25//25
f 45//45 46//46 26//26
f 46//46 27//27 26//26
f 46//46 47//47 27//27
f 47//47 28//28 27//27
f 47//47 48//48 28//28
f 48//48 29//29 28//28
f 48//48 49//49 29//29
f 49//49 30//30 29//29
f 49//49 50//50 30//30
f 50//50 31//31 30//30
f 50//50 51//51 31//31
f 51//51 32//32 31//31
f 51//51 52//52 32//32
f 52//52 33//33 32//32
f 52//52 53//53 33//33
f 53//53 34//34 33//33
f 53//53 54//54 34//34
f 54//54 35//35 34//34
f 54//54 55//55 35//35
f 55//55 36//36 35//35
f 55//55 56//56 36//36
f 56//56 37//37 36//36
f 56//56 57//57 37//37
f 57//57 38//38 37//37
f 57//57 58//58 38//38
f 58//58 39//39 38//38
f 58//58 59//59 39//39
f 59//59 40//40 39//39
f 59//59 60//60 40//40
f 60//60 41//41 40//40
f 60//60 61//61 41//41
f 61//61 42//42 41//41
f 61//61 62//62 42//42
f 62//62 23//23 42//42
f 62//62 43//43 23//23
f 63//63 44//44 43//43
f 63//63 64//64 44//44
f 64//64 45//45 44//44
f 64//64 65//65 45//45
f 65//65 46//46 45//45
f 65//65 66//66 46//46
f 66//66 47//47 46//46
f 66//66 67//67 47//47
f 67//67 48//48 47//47
f 67//67 68//68 48//48
f 68//68 49//49 48//48
f 68//68 69//69 49//49
f 69//69 50//50 49//49
f 69//69 70//70 50//50
f 70//70 51//51 50//50
f 70//70 71//71 51//51
f 71//71 52//52 51//51
f 71//71 72//72 52//52
f 72//72 53//53 52//52
f 72//72 73//73 53//53
f 73//73 54//54 53//53
f 73//73 74//74 54//54
f 74//74 55//55 54//54
f 74//74 75//75 55//55
f 75//75 56//56 55//55
f 75//75 76//76 56//56
f 76//76 57//57 56//56
f 76//76 77//77 57//57
f 77//77 58//58 57//57
f 77//77 78//78 58//58
f 78//78 59//59 58//58
f 78//78 79//79 59//59
f 79//79 60//60 59//59
f 79//79 80//80 60//60
f 80//80 61//61 60//60
f 80//80 81//81 61//61
f 81//81 62//62 61//61
f 81//81 82//82 62//62
f 82//82 43//43 62//62
f 82//82 63//63 43//43
f 83//83 64//64 63//63
f 83//83 84//84 64//64
f 84//84 65//65 64//64
f 84//84 85//85 65//65
f 85//85 66//66 65//65
f 85//85 86//86 66//66
f 86//86 67//67 66//66
f 86//86 87//87 67//67
f 87//87 68//68 67//67
f 87//87 88//88 68//68
f 88//88 69//69 68//68
f 88//88 89//89 69//69
f 89//89 70//70 69//69
f 89//89 90//90 70//70
f 90//90 71//71 70//70
f 90//90 91//91 71//71
f 91//91 72//72 71//71
f 91//91 92//92 72//72
f 92//92 73//73 72//72
f 92//92 93//93 73//73
f 93//93 74//74 73//73
f 93//93 94//94 74//74
f 94//94 75//75 74//74
f 94//94 95//95 75//75
f 95//95 76//76 75//75
f 95//95 96//96 76//76
f 96//96 77//77 76//76
f 96//96 97//97 77//77
f 97//97 78//78 77//77
f 97//97 98//98 78//78
f 98//98 79//79 78//78
f 98//98 99//99 79//79
f 99//99 80//80 79//79
f 99//99 100//100 80//80
f 100//100 81//81 80//80
f 100//100 101//101 81//81
f 101//101 82//82 81//81
f 101//101 102//102 82//82
f 102//102 63//63 82//82
f 102//102 83//83 63//63
