# Created by Open3D 
# object name: 2
# number of vertices: 102
# number of triangles: 200
v 0.00185957 -0.00213131 -1.49483 0 1 0
vn 0.000864477 -0.000810881 -0.999999
v 0.00163596 -0.00192157 -1.23616 0 1 0
vn -0.000864477 0.000810881 0.999999
v 0.0840843 -0.0792583 -1.49469 0 1 0
vn 0.499611 -0.421453 -0.756813
v 0.0562264 -0.100892 -1.4947 0 1 0
vn 0.345144 -0.555042 -0.756839
v 0.0230467 -0.112859 -1.49472 0 1 0
vn 0.156956 -0.634359 -0.756937
v -0.012207 -0.113987 -1.49475 0 1 0
vn -0.0465321 -0.651641 -0.757099
v -0.0460838 -0.104165 -1.49478 0 1 0
vn -0.245401 -0.605196 -0.757308
v -0.0752675 -0.0843561 -1.49483 0 1 0
vn -0.420184 -0.499571 -0.757545
v -0.0969015 -0.0564982 -1.49487 0 1 0
vn -0.553773 -0.345104 -0.757786
v -0.108868 -0.0233185 -1.4949 0 1 0
vn -0.63309 -0.156916 -0.758007
v -0.109996 0.0119352 -1.49493 0 1 0
vn -0.650372 0.0465723 -0.758187
v -0.100174 0.045812 -1.49495 0 1 0
vn -0.603927 0.245441 -0.758308
v -0.0803652 0.0749957 -1.49496 0 1 0
vn -0.498301 0.420224 -0.758358
v -0.0525073 0.0966297 -1.49495 0 1 0
vn -0.343834 0.553813 -0.758333
v -0.0193275 0.108596 -1.49493 0 1 0
vn -0.155646 0.63313 -0.758235
v 0.0159262 0.109724 -1.4949 0 1 0
vn 0.0478419 0.650413 -0.758073
v 0.0498029 0.0999027 -1.49487 0 1 0
vn 0.246711 0.603968 -0.757863
v 0.0789866 0.0800935 -1.49483 0 1 0
vn 0.421494 0.498342 -0.757627
v 0.100621 0.0522356 -1.49478 0 1 0
vn 0.555082 0.343875 -0.757386
v 0.112587 0.0190559 -1.49475 0 1 0
vn 0.6344 0.155687 -0.757165
v 0.113715 -0.0161978 -1.49472 0 1 0
vn 0.651682 -0.0478009 -0.756985
v 0.103894 -0.0500746 -1.4947 0 1 0
vn 0.605237 -0.24667 -0.756864
v 0.0840284 -0.0792059 -1.43003 0 1 0
vn 0.729354 -0.684136 0.00118526
v 0.0561705 -0.10084 -1.43003 0 1 0
vn 0.482247 -0.876034 0.00112725
v 0.0229908 -0.112806 -1.43005 0 1 0
vn 0.187935 -0.982181 0.000958898
v -0.0122629 -0.113934 -1.43008 0 1 0
vn -0.124774 -0.992185 0.00069668
v -0.0461397 -0.104113 -1.43012 0 1 0
vn -0.425269 -0.905067 0.000366266
v -0.0753234 -0.0843037 -1.43016 0 1 0
vn -0.684136 -0.729354 -1.72174e-17
v -0.0969574 -0.0564458 -1.4302 0 1 0
vn -0.876035 -0.482248 -0.000366266
v -0.108924 -0.023266 -1.43024 0 1 0
vn -0.982181 -0.187935 -0.00069668
v -0.110052 0.0119876 -1.43027 0 1 0
vn -0.992185 0.124773 -0.000958898
v -0.10023 0.0458644 -1.43029 0 1 0
vn -0.905066 0.425269 -0.00112725
v -0.0804211 0.0750481 -1.43029 0 1 0
vn -0.729354 0.684136 -0.00118526
v -0.0525632 0.0966821 -1.43029 0 1 0
vn -0.482247 0.876034 -0.00112725
v -0.0193834 0.108649 -1.43027 0 1 0
vn -0.187935 0.982181 -0.000958898
v 0.0158703 0.109777 -1.43024 0 1 0
vn 0.124774 0.992185 -0.00069668
v 0.049747 0.0999551 -1.4302 0 1 0
vn 0.425269 0.905067 -0.000366266
v 0.0789307 0.0801459 -1.43016 0 1 0
vn 0.684136 0.729354 -2.86382e-17
v 0.100565 0.052288 -1.43012 0 1 0
vn 0.876035 0.482248 0.000366266
v 0.112531 0.0191083 -1.43008 0 1 0
vn 0.982181 0.187935 0.00069668
v 0.113659 -0.0161454 -1.43005 0 1 0
vn 0.992185 -0.124773 0.000958898
v 0.103838 -0.0500221 -1.43003 0 1 0
vn 0.905066 -0.425269 0.00112725
v 0.0839725 -0.0791534 -1.36536 0 1 0
vn 0.729354 -0.684136 0.00118526
v 0.0561146 -0.100787 -1.36537 0 1 0
vn 0.482247 -0.876034 0.00112725
v 0.0229349 -0.112754 -1.36539 0 1 0
vn 0.187935 -0.982181 0.000958898
v -0.0123188 -0.113882 -1.36542 0 1 0
vn -0.124774 -0.992185 0.00069668
v -0.0461956 -0.10406 -1.36545 0 1 0
vn -0.425269 -0.905067 0.000366266
v -0.0753793 -0.0842513 -1.36549 0 1 0
vn -0.684136 -0.729354 -7.15171e-17
v -0.0970133 -0.0563933 -1.36554 0 1 0
vn -0.876035 -0.482248 -0.000366266
v -0.10898 -0.0232136 -1.36557 0 1 0
vn -0.982181 -0.187935 -0.00069668
v -0.110108 0.0120401 -1.3656 0 1 0
vn -0.992185 0.124773 -0.000958898
v -0.100286 0.0459168 -1.36562 0 1 0
vn -0.905066 0.425269 -0.00112725
v -0.080477 0.0751006 -1.36563 0 1 0
vn -0.729354 0.684136 -0.00118526
v -0.0526191 0.0967346 -1.36562 0 1 0
vn -0.482247 0.876034 -0.00112725
v -0.0194393 0.108701 -1.3656 0 1 0
vn -0.187935 0.982181 -0.000958898
v 0.0158144 0.109829 -1.36557 0 1 0
vn 0.124774 0.992185 -0.00069668
v 0.0496911 0.100008 -1.36554 0 1 0
vn 0.425269 0.905067 -0.000366266
v 0.0788748 0.0801984 -1.36549 0 1 0
vn 0.684136 0.729354 1.33164e-18
v 0.100509 0.0523405 -1.36545 0 1 0
vn 0.876035 0.482248 0.000366266
v 0.112475 0.0191607 -1.36542 0 1 0
vn 0.982181 0.187935 0.00069668
v 0.113603 -0.016093 -1.36539 0 1 0
vn 0.992185 -0.124773 0.000958898
v 0.103782 -0.0499697 -1.36537 0 1 0
vn 0.905066 -0.425269 0.00112725
v 0.0839166 -0.079101 -1.30069 0 1 0
vn 0.729354 -0.684136 0.00118526
v 0.0560587 -0.100735 -1.3007 0 1 0
vn 0.482247 -0.876034 0.00112725
v 0.022879 -0.112702 -1.30072 0 1 0
vn 0.187935 -0.982181 0.000958898
v -0.0123747 -0.113829 -1.30075 0 1 0
vn -0.124774 -0.992185 0.00069668
v -0.0462515 -0.104008 -1.30079 0 1 0
vn -0.425269 -0.905067 0.000366266
v -0.0754352 -0.0841988 -1.30083 0 1 0
vn -0.684136 -0.729354 1.26898e-17
v -0.0970692 -0.0563409 -1.30087 0 1 0
vn -0.876035 -0.482248 -0.000366266
v -0.109036 -0.0231612 -1.30091 0 1 0
vn -0.982181 -0.187935 -0.00069668
v -0.110163 0.0120925 -1.30094 0 1 0
vn -0.992185 0.124773 -0.000958898
v -0.100342 0.0459693 -1.30096 0 1 0
vn -0.905066 0.425269 -0.00112725
v -0.0805329 0.075153 -1.30096 0 1 0
vn -0.729354 0.684136 -0.00118526
v -0.052675 0.096787 -1.30096 0 1 0
vn -0.482247 0.876034 -0.00112725
v -0.0194952 0.108754 -1.30094 0 1 0
vn -0.187935 0.982181 -0.000958898
v 0.0157585 0.109881 -1.30091 0 1 0
vn 0.124774 0.992185 -0.00069668
v 0.0496352 0.10006 -1.30087 0 1 0
vn 0.425269 0.905067 -0.000366266
v 0.0788189 0.0802508 -1.30083 0 1 0
vn 0.684136 0.729354 -2.86382e-17
v 0.100453 0.0523929 -1.30079 0 1 0
vn 0.876035 0.482248 0.000366266
v 0.112419 0.0192132 -1.30075 0 1 0
vn 0.982181 0.187935 0.00069668
v 0.113547 -0.0160405 -1.30072 0 1 0
vn 0.992185 -0.124773 0.000958898
v 0.103726 -0.0499173 -1.3007 0 1 0
vn 0.905066 -0.425269 0.00112725
v 0.0838607 -0.0790486 -1.23603 0 1 0
vn 0.451215 -0.470423 0.758358
v 0.0560028 -0.100683 -1.23604 0 1 0
vn 0.28354 -0.587004 0.758308
v 0.022823 -0.112649 -1.23605 0 1 0
vn 0.0880461 -0.646065 0.758187
v -0.0124306 -0.113777 -1.23608 0 1 0
vn -0.11613 -0.641825 0.758007
v -0.0463074 -0.103956 -1.23612 0 1 0
vn -0.309003 -0.574698 0.757786
v -0.0754911 -0.0841464 -1.23616 0 1 0
vn -0.471693 -0.451255 0.757545
v -0.0971251 -0.0562885 -1.2362 0 1 0
vn -0.588274 -0.283581 0.757308
v -0.109092 -0.0231087 -1.23624 0 1 0
vn -0.647335 -0.0880872 0.757099
v -0.110219 0.0121449 -1.23627 0 1 0
vn -0.643094 0.116089 0.756937
v -0.100398 0.0460217 -1.23629 0 1 0
vn -0.575967 0.308962 0.756839
v -0.0805888 0.0752054 -1.2363 0 1 0
vn -0.452524 0.471652 0.756813
v -0.0527309 0.0968394 -1.23629 0 1 0
vn -0.28485 0.588233 0.756864
v -0.0195511 0.108806 -1.23627 0 1 0
vn -0.089356 0.647294 0.756985
v 0.0157026 0.109934 -1.23624 0 1 0
vn 0.11482 0.643053 0.757165
v 0.0495793 0.100112 -1.2362 0 1 0
vn 0.307693 0.575927 0.757386
v 0.078763 0.0803032 -1.23616 0 1 0
vn 0.470383 0.452484 0.757627
v 0.100397 0.0524453 -1.23612 0 1 0
vn 0.586964 0.284809 0.757863
v 0.112364 0.0192656 -1.23608 0 1 0
vn 0.646025 0.0893158 0.758073
v 0.113491 -0.0159881 -1.23605 0 1 0
vn 0.641784 -0.114861 0.758235
v 0.10367 -0.0498648 -1.23604 0 1 0
vn 0.574657 -0.307733 0.758333
f 1//1 3//3 4//4
f 2//2 84//84 83//83
f 1//1 4//4 5//5
f 2//2 85//85 84//84
f 1//1 5//5 6//6
f 2//2 86//86 85//85
f 1//1 6//6 7//7
f 2//2 87//87 86//86
f 1//1 7//7 8//8
f 2//2 88//88 87//87
f 1//1 8//8 9//9
f 2//2 89//89 88//88
f 1//1 9//9 10//10
f 2//2 90//90 89//89
f 1//1 10//10 11//11
f 2//2 91//91 90//90
f 1//1 11//11 12//12
f 2//2 92//92 91//91
f 1//1 12//12 13//13
f 2//2 93//93 92//92
f 1//1 13//13 14//14
f 2//2 94//94 93//93
f 1//1 14//14 15//15
f 2//2 95//95 94//94
f 1//1 15//15 16//16
f 2//2 96//96 95//95
f 1//1 16//16 17//17
f 2//2 97//97 96//96
f 1//1 17//17 18//18
f 2//2 98//98 97//97
f 1//1 18//18 19//19
f 2//2 99//99 98//98
f 1//1 19//19 20//20
f 2//2 100//100 99//99
f 1//1 20//20 21//21
f 2//2 101//101 100//100
f 1//1 21//21 22//22
f 2//2 102//102 101//101
f 1//1 22//22 3//3
f 2//2 83//83 102//102
f 23//23 4//4 3//3
f 23//23 24//24 4//4
f 24//24 5//5 4//4
f 24//24 25//25 5//5
f 25//25 6//6 5//5
f 25//25 26//26 6//6
f 26//26 7//7 6//6
f 26//26 27//27 7//7
f 27//27 8//8 7//7
f 27//27 28//28 8//8
f 28//28 9//9 8//8
f 28//28 29//29 9//9
f 29//29 10//10 9//9
f 29//29 30//30 10//10
f 30//30 11//11 10//10
f 30//30 31//31 11//11
f 31//31 12//12 11//11
f 31//31 32//32 12//12
f 32//32 13//13 12//12
f 32//32 33//33 13//13
f 33//33 14//14 13//13
f 33//33 34//34 14//14
f 34//34 15//15 14//14
f 34//34 35//35 15//15
f 35//35 16//16 15//15
f 35//35 36//36 16//16
f 36//36 17//17 16//16
f 36//36 37//37 17//17
f 37//37 18//18 17//17
f 37//37 38//38 18//18
f 38//38 19//19 18//18
f 38//38 39//39 19//19
f 39//39 20//20 19//19
f 39//39 40//40 20//20
f 40//40 21//21 20//20
f 40//40 41//41 21//21
f 41//41 22//22 21//21
f 41//41 42//42 22//22
f 42//42 3//3 22//22
f 42//42 23//23 3//3
f 43//43 24//24 23//23
f 43//43 44//44 24//24
f 44//44 25//25 24//24
f 44//44 45//45 25//25
f 45//45 26//26 25//25
f 45//45 46//46 26//26
f 46//46 27//27 26//26
f 46//46 47//47 27//27
f 47//47 28//28 27//27
f 47//47 48//48 28//28
f 48//48 29//29 28//28
f 48//48 49//49 29//29
f 49//49 30//30 29//29
f 49//49 50//50 30//30
f 50//50 31//31 30//30
f 50//50 51//51 31//31
f 51//51 32//32 31//31
f 51//51 52//52 32//32
f 52//52 33//33 32//32
f 52//52 53//53 33//33
f 53//53 34//34 33//33
f 53//53 54//54 34//34
f 54//54 35//35 34//34
f 54//54 55//55 35//35
f 55//55 36//36 35//35
f 55//55 56//56 36//36
f 56//56 37//37 36//36
f 56//56 57//57 37//37
f 57//57 38//38 37//37
f 57//57 58//58 38//38
f 58//58 39//39 38//38
f 58//58 59//59 39//39
f 59//59 40//40 39//39
f 59//59 60//60 40//40
f 60//60 41//41 40//40
f 60//60 61//61 41//41
f 61//61 42//42 41//41
f 61//61 62//62 42//42
f 62//62 23//23 42//42
f 62//62 43//43 23//23
f 63//63 44//44 43//43
f 63//63 64//64 44//44
f 64//64 45//45 44//44
f 64//64 65//65 45//45
f 65//65 46//46 45//45
f 65//65 66//66 46//46
f 66//66 47//47 46//46
f 66//66 67//67 47//47
f 67//67 48//48 47//47
f 67//67 68//68 48//48
f 68//68 49//49 48//48
f 68//68 69//69 49//49
f 69//69 50//50 49//49
f 69//69 70//70 50//50
f 70//70 51//51 50//50
f 70//70 71//71 51//51
f 71//71 52//52 51//51
f 71//71 72//72 52//52
f 72//72 53//53 52//52
f 72//72 73//73 53//53
f 73//73 54//54 53//53
f 73//73 74//74 54//54
f 74//74 55//55 54//54
f 74//74 75//75 55//55
f 75//75 56//56 55//55
f 75//75 76//76 56//56
f 76//76 57//57 56//56
f 76//76 77//77 57//57
f 77//77 58//58 57//57
f 77//77 78//78 58//58
f 78//78 59//59 58//58
f 78//78 79//79 59//59
f 79//79 60//60 59//59
f 79//79 80//80 60//60
f 80//80 61//61 60//60
f 80//80 81//81 61//61
f 81//81 62//62 61//61
f 81//81 82//82 62//62
f 82//82 43//43 62//62
f 82//82 63//63 43//43
f 83//83 64//64 63//63
f 83//83 84//84 64//64
f 84//84 65//65 64//64
f 84//84 85//85 65//65
f 85//85 66//66 65//65
f 85//85 86//86 66//66
f 86//86 67//67 66//66
f 86//86 87//87 67//67
f 87//87 68//68 67//67
f 87//87 88//88 68//68
f 88//88 69//69 68//68
f 88//88 89//89 69//69
f 89//89 70//70 69//69
f 89//89 90//90 70//70
f 90//90 71//71 70//70
f 90//90 91//91 71//71
f 91//91 72//72 71//71
f 91//91 92//92 72//72
f 92//92 73//73 72//72
f 92//92 93//93 73//73
f 93//93 74//74 73//73
f 93//93 94//94 74//74
f 94//94 75//75 74//74
f 94//94 95//95 75//75
f 95//95 76//76 75//75
f 95//95 96//96 76//76
f 96//96 77//77 76//76
f 96//96 97//97 77//77
f 97//97 78//78 77//77
f 97//97 98//98 78//78
f 98//98 79//79 78//78
f 98//98 99//99 79//79
f 99//99 80//80 79//79
f 99//99 100//100 80//80
f 100//100 81//81 80//80
f 100//100 101//101 81//81
f 101//101 82//82 81//81
f 101//101 102//102 82//82
f 102//102 63//63 82//82
f 102//102 83//83 63//63
